<?xml version="1.0" encoding="UTF-8"?><svg id="Layer_2" xmlns="http://www.w3.org/2000/svg" viewBox="0 0 618.24 60.8"><defs><style>.cls-1{fill:#fff;stroke-width:0px;}</style></defs><g id="Layer_1-2"><path class="cls-1" d="M28.71,10.13c6.75,0,10.97,2.53,12.66,7.6l.85.85h10.13l.84-.85C51.51,6.76,42.22,0,28.71,0,10.13,0,0,12.66,0,30.4s10.13,30.4,28.71,30.4c13.51,0,22.8-6.76,24.48-18.58l-.84-.85h-10.13l-.85.85c-1.69,5.91-5.91,8.44-12.66,8.44-11.82,0-16.89-8.44-16.89-20.26s5.07-20.27,16.89-20.27Z"/><polygon class="cls-1" points="103.89 .85 103.05 1.69 103.05 23.64 102.21 24.49 79.41 24.49 78.57 23.64 78.57 1.69 77.72 .85 67.59 .85 66.74 1.69 66.74 59.11 67.59 59.95 77.72 59.95 78.57 59.11 78.57 35.46 79.41 34.62 102.21 34.62 103.05 35.46 103.05 59.11 103.89 59.95 114.03 59.95 114.87 59.11 114.87 1.69 114.03 .85 103.89 .85"/><polygon class="cls-1" points="132.64 .85 131.8 1.69 131.8 59.11 132.64 59.95 172.33 59.95 173.17 59.11 173.17 50.67 172.33 49.82 144.47 49.82 143.62 48.97 143.62 35.46 144.47 34.62 170.64 34.62 171.49 33.78 171.49 25.34 170.64 24.49 144.47 24.49 143.62 23.64 143.62 11.83 144.47 10.98 172.33 10.98 173.17 10.13 173.17 1.69 172.33 .85 132.64 .85"/><path class="cls-1" d="M213.73,10.13c6.75,0,10.97,2.53,12.66,7.6l.85.85h10.13l.84-.85c-1.68-10.97-10.97-17.73-24.48-17.73-18.58,0-28.71,12.66-28.71,30.4s10.13,30.4,28.71,30.4c13.51,0,22.8-6.76,24.48-18.58l-.84-.85h-10.13l-.85.85c-1.69,5.91-5.91,8.44-12.66,8.44-11.82,0-16.89-8.44-16.89-20.26s5.07-20.27,16.89-20.27Z"/><polygon class="cls-1" points="330.62 49.82 329.77 48.97 329.77 1.69 328.92 .85 318.79 .85 317.94 1.69 317.94 59.11 318.79 59.95 356.79 59.95 357.64 59.11 357.64 50.67 356.79 49.82 330.62 49.82"/><polygon class="cls-1" points="369.48 .85 368.64 1.69 368.64 59.11 369.48 59.95 379.62 59.95 380.46 59.11 380.46 1.69 379.62 .85 369.48 .85"/><path class="cls-1" d="M421.85,24.49c-11.82-1.69-15.2-3.38-15.2-8.44,0-3.38,2.54-5.91,10.13-5.91,9.29,0,11.83,2.53,11.83,7.6l.84.85h10.13l.85-.85c0-10.13-6.76-17.73-22.8-17.73s-22.8,7.6-22.8,16.05c0,11.82,9.29,16.04,21.11,17.73,11.83,1.68,15.2,3.38,15.2,9.29,0,5.07-4.22,7.6-11.82,7.6-10.13,0-13.51-3.38-13.51-9.29l-.85-.85h-10.13l-.85.85c0,10.98,7.6,19.42,24.49,19.42,17.73,0,24.48-8.44,24.48-17.73,0-11.83-9.29-16.89-21.11-18.58Z"/><polygon class="cls-1" points="451.43 .85 450.59 1.69 450.59 10.13 451.43 10.98 468.32 10.98 469.16 11.83 469.16 59.11 470.01 59.95 480.14 59.95 480.99 59.11 480.99 11.83 481.83 10.98 498.72 10.98 499.57 10.13 499.57 1.69 498.72 .85 451.43 .85"/><polygon class="cls-1" points="512.26 .85 511.42 1.69 511.42 59.11 512.26 59.95 551.94 59.95 552.79 59.11 552.79 50.67 551.94 49.82 524.08 49.82 523.24 48.97 523.24 35.46 524.08 34.62 550.26 34.62 551.1 33.78 551.1 25.34 550.26 24.49 524.08 24.49 523.24 23.64 523.24 11.83 524.08 10.98 551.94 10.98 552.79 10.13 552.79 1.69 551.94 .85 512.26 .85"/><path class="cls-1" d="M292.15,34.33l-6.36,8.03c-.2.25-.2.61,0,.86l11.99,15.83,1.69.84h5.91l.84-.84v-8.45l-12.97-16.27c-.28-.35-.82-.35-1.1,0Z"/><polygon class="cls-1" points="302.71 10.11 302.71 1.66 301.87 .81 295.95 .81 294.26 1.66 281.03 19.05 274.27 27.99 263.85 41.72 263.85 1.66 263 .81 252.86 .81 252.02 1.66 252.02 59.11 252.86 59.95 263.17 59.95 281.17 37.07 288.28 28.13 302.71 10.11"/><path class="cls-1" d="M605.56,35.46c6.76-1.68,12.67-7.6,12.67-16.89,0-11.82-8.44-17.73-20.27-17.73h-29.1l-.85.85v57.42l.85.85h10.13l.85-.85v-21.95l.85-.85h9.68l1.68.85,16.89,21.95,1.68.85h5.07l.85-.85v-8.44l-10.98-14.36v-.85ZM597.97,26.18h-17.28l-.85-.85v-13.51l.85-.85h17.28c5.07,0,8.44,1.68,8.44,7.6s-3.38,7.6-8.44,7.6Z"/></g></svg>